<svg id="Layer_1" data-name="Layer 1" xmlns="http://www.w3.org/2000/svg" viewBox="0 0 107.11 122.88"><defs><style>.cls-1{fill-rule:evenodd;}</style></defs><title>stand-up</title><path class="cls-1" d="M98.79,41.81c2.44-.82,5,.48,6.71,2.52a11.94,11.94,0,0,1,1.33,3.22,9.61,9.61,0,0,1,.24,3.2c-1.36,3.36-3.86,4.57-6.68,6.54A61.51,61.51,0,0,1,91.65,61q-2.4.9-4.88,1.67c-1.64.51-3.3,1-5,1.38a19.64,19.64,0,0,1-17.18-4.37A47,47,0,0,1,60.82,56l-.37-.4L57.17,75A68.49,68.49,0,0,0,65,79.57c8.51,4,15.5,7.25,17,20.6.27,2.33.15,16,0,22.71H66.67c.15-7.58.32-18.23.19-20.29-.09-1.48-1.09-5.38-2.64-6.09a65.82,65.82,0,0,0-6.37-2.37c-3-1-5.47-2-8.44-2.82-2.19,7.19-5.12,15.87-8.28,24.14l-3,7.43H21.51c1.54-4.14,3.12-8.55,4.67-13,3.2-9.17,6.27-18.58,8.53-26.06a23.86,23.86,0,0,1-3.51-5.53,12.34,12.34,0,0,1-1.14-5.18,12.09,12.09,0,0,1,.18-2.08L35,47.2c-1.7-.09-3.65-.59-5.25.11-3.09,1.35-7.65,7.13-10.35,9.84l-3.62,3.66c-2.79,2.82-4.64,6-8.91,5.61C1.55,66-2.23,60.12,1.5,55.61l8.34-8.44c4-4.08,7.82-8.88,12.78-11.68,4-2.25,8.3-3.79,15.46-3.48,2.63,0,5.4.29,8,.54l3.06.26c12,.78,17.62,7.11,22,12,1.94,2.19,3.6,4,5.4,4.91.85.4,2.19-.17,3.71-.8l11.11-4.13,7.41-3v0Zm-50-41A14.2,14.2,0,0,1,53.48,0a14.4,14.4,0,1,1-14.4,14.4,14.56,14.56,0,0,1,1.47-6.35A14.39,14.39,0,0,1,48.82.78Z"/></svg>