<?xml version="1.0"?>
<svg xmlns="http://www.w3.org/2000/svg" viewBox="0 0 50 50">
    <path style="text-indent:0;text-align:start;line-height:normal;text-transform:none;block-progression:tb;-inkscape-font-specification:Sans" d="M 14 2 C 7.935 2 3 5.589 3 10 L 3 40 C 3 42.319015 4.338355 44.37746 6.34375 45.78125 C 8.349145 47.18504 11.049352 48 14 48 L 47 48 L 48 48 L 48 47 L 48 10 L 48 9 L 47 9 L 24.90625 9 C 24.226742 5.059731 19.598877 2 14 2 z M 25 11 L 46 11 L 46 46 L 14 46 C 11.427648 46 9.113855 45.25471 7.5 44.125 C 5.886145 42.99529 5 41.546985 5 40 C 5 38.453015 5.886145 37.00471 7.5 35.875 C 8.6812162 35.04814 10.24192 34.429738 12 34.15625 L 12 42 L 12 42.46875 L 12.375 42.78125 C 12.375 42.78125 15.023115 45 18.5 45 C 20.215511 45 21.777814 44.491203 22.96875 43.625 C 24.159686 42.758797 25 41.47601 25 40 L 25 11 z M 14 34 C 16.572352 34 18.886145 34.74529 20.5 35.875 C 22.113855 37.00471 23 38.453015 23 40 C 23 40.73299 22.612064 41.449703 21.8125 42.03125 C 21.012936 42.612797 19.822489 43 18.5 43 C 16.227692 43 14.472315 41.7789 14 41.4375 L 14 34 z" overflow="visible" font-family="Sans"/>
</svg>
