<?xml version="1.0"?>
<svg xmlns="http://www.w3.org/2000/svg" viewBox="0 0 50 50">
    <path style="text-indent:0;text-align:start;line-height:normal;text-transform:none;block-progression:tb;-inkscape-font-specification:Sans" d="M 12.25 0.96875 C 12.079969 0.96019022 11.901144 0.98034337 11.71875 1.03125 L 10.75 1.3125 L 11.03125 2.28125 L 14.5 14.375 L 3.5625 7.15625 L 2.75 6.625 L 2.1875 7.40625 C 1.8668495 7.8580995 1.8548001 8.4143536 1.9375 8.84375 C 2.0202 9.2731464 2.1790101 9.6767429 2.40625 10.09375 C 2.8607298 10.927764 3.5661275 11.849047 4.4375 12.875 C 6.180245 14.926907 8.6214888 17.335835 11.125 19.6875 C 15.128591 23.44826 18.566158 26.380127 20.0625 27.65625 C 20.072195 27.664518 20.084277 27.679424 20.09375 27.6875 A 1.0001 1.0001 0 0 0 20.125 27.75 A 1.0001 1.0001 0 0 0 20.25 27.875 C 21.227763 28.852298 21.609983 29.483192 21.8125 30.3125 C 22.015017 31.141808 22 32.264927 22 34 C 22 35.588243 22.683377 37.518208 23.09375 38.40625 C 23.997338 40.360025 25.405784 42.429014 26.84375 44.1875 C 28.281716 45.945986 29.677405 47.382207 30.8125 48.09375 C 31.767456 48.690448 32.874367 49 34 49 C 36.069988 49 37.994535 47.941465 39.09375 46.1875 C 40.828711 43.420813 39.981827 39.755583 37.28125 38 C 37.27505 37.996 37.28745 37.97275 37.28125 37.96875 C 37.27955 37.96755 37.22199 37.94012 37.21875 37.9375 C 37.13274 37.8679 36.543983 37.341637 35.96875 36.6875 C 35.371859 36.008734 34.749582 35.144049 34.4375 34.46875 C 33.645379 32.755557 32.175298 31.239117 30.125 31 L 30.0625 31 L 30 31 C 28.92333 31 28.232016 30.400587 27.71875 29.6875 C 27.658973 29.604451 27.614089 29.519694 27.5625 29.4375 C 27.584141 29.440238 27.603315 29.434727 27.625 29.4375 C 30.648379 29.824099 34.089878 30.671131 35.34375 31.75 C 37.030135 33.201016 38.212754 34.007784 39.25 34.46875 C 40.287246 34.929716 41.171397 35 42 35 C 45.301625 35 48 32.301625 48 29 C 48 25.698375 45.301625 23 42 23 C 39.25111 23 37.334058 24.482007 36.78125 24.9375 C 36.67345 24.91861 36.593898 24.914 36.3125 24.84375 C 35.897337 24.740107 35.341287 24.591998 34.71875 24.40625 C 33.473677 24.034753 31.919774 23.531688 30.40625 23.03125 C 27.412973 22.041539 24.656676 21.084488 24.59375 21.0625 C 24.59304 21.062252 24.53125 21.03125 24.53125 21.03125 L 23.9375 20.65625 A 1.0001 1.0001 0 0 0 23.9375 20.625 L 23.90625 20.59375 C 22.188569 16.601221 19.961391 11.689957 17.875 7.8125 C 16.831805 5.8737717 15.828388 4.2112059 14.90625 3 C 14.445181 2.394397 14.03635 1.8995089 13.5625 1.53125 C 13.207112 1.2550558 12.760093 0.99442934 12.25 0.96875 z M 14 5.34375 C 14.66349 6.3344364 15.358129 7.3560578 16.125 8.78125 C 17.702559 11.713067 19.398304 15.27962 20.875 18.59375 L 17 16.0625 A 1.0087508 1.0087508 0 0 0 16.96875 15.71875 L 14 5.34375 z M 5.40625 10.78125 L 23.65625 22.8125 L 23.75 22.875 L 23.875 22.9375 C 23.875 22.9375 26.733798 23.929877 29.78125 24.9375 C 31.304976 25.441312 32.877011 25.962059 34.15625 26.34375 C 34.79587 26.534595 35.378937 26.696463 35.84375 26.8125 C 36.308563 26.928537 36.580994 27 37 27 L 37.375 27 L 37.65625 26.75 C 37.65625 26.75 39.811586 25 42 25 C 44.220375 25 46 26.779625 46 29 C 46 31.220375 44.220375 33 42 33 C 41.237603 33 40.801754 32.98478 40.0625 32.65625 C 39.335491 32.333158 38.289877 31.626462 36.71875 30.28125 L 36.65625 30.25 C 34.607122 28.486869 31.025871 27.840401 27.875 27.4375 C 24.958716 27.064595 22.800945 27.038332 22.4375 27.03125 C 22.223784 26.852322 17.345958 22.802035 12.5 18.25 C 10.024386 15.92454 7.6166613 13.50275 5.96875 11.5625 C 5.7076447 11.255075 5.6253571 11.062454 5.40625 10.78125 z M 22 23 C 21.447715 23 21 23.447715 21 24 C 21 24.552285 21.447715 25 22 25 C 22.552285 25 23 24.552285 23 24 C 23 23.447715 22.552285 23 22 23 z M 42 26 C 40.35499 26 39 27.35499 39 29 C 39 30.64501 40.35499 32 42 32 C 43.64501 32 45 30.64501 45 29 C 45 27.35499 43.64501 26 42 26 z M 42 28 C 42.564128 28 43 28.435872 43 29 C 43 29.564128 42.564128 30 42 30 C 41.435872 30 41 29.564128 41 29 C 41 28.435872 41.435872 28 42 28 z M 23.5 29.0625 C 24.00872 29.089941 24.514542 29.128503 25.21875 29.1875 C 25.343399 29.549262 25.580746 30.131027 26.09375 30.84375 C 26.805944 31.83321 28.090621 32.912311 29.875 32.96875 L 29.875 33 C 31.048702 33.136883 32.041121 34.049693 32.625 35.3125 C 33.081918 36.301201 33.797141 37.236266 34.46875 38 C 35.140359 38.763734 35.697689 39.286592 36.125 39.59375 L 36.125 39.625 L 36.15625 39.625 C 37.984328 40.773622 38.549685 43.251767 37.375 45.125 C 36.634215 46.307035 35.396012 47 34 47 C 33.249633 47 32.514044 46.774302 31.875 46.375 C 31.189413 45.941024 29.757171 44.589539 28.40625 42.9375 C 27.049216 41.277986 25.697662 39.304975 24.90625 37.59375 C 24.694623 37.135792 24 34.827757 24 34 C 24 32.277073 24.04223 31.040442 23.75 29.84375 C 23.684797 29.576742 23.60403 29.317508 23.5 29.0625 z M 29 34 C 28.564164 34 28.145488 34.09689 27.75 34.28125 C 27.030355 34.613509 26.461835 35.224337 26.1875 35.96875 C 25.912295 36.715523 25.949045 37.530718 26.28125 38.25 C 27.064404 39.943218 28.231645 41.536767 29.375 42.8125 C 30.518355 44.088233 31.594043 45.021752 32.40625 45.53125 C 32.884244 45.831875 33.43783 46 34 46 C 35.0297 46 35.983715 45.467128 36.53125 44.59375 C 37.405366 43.200534 36.986156 41.343849 35.59375 40.46875 C 35.480195 40.39764 34.609289 39.674835 33.8125 38.78125 C 33.015711 37.887665 32.185752 36.759511 31.71875 35.75 C 31.231113 34.685927 30.168248 34 29 34 z M 29 36 C 29.385752 36 29.745887 36.243823 29.90625 36.59375 C 30.509248 37.897239 31.430039 39.104085 32.3125 40.09375 C 33.194961 41.083415 33.935805 41.783362 34.53125 42.15625 C 35.006844 42.455151 35.141634 43.056466 34.84375 43.53125 C 34.655285 43.831872 34.3563 44 34 44 C 33.81017 44 33.626756 43.94313 33.46875 43.84375 C 32.976957 43.535248 31.889895 42.636017 30.84375 41.46875 C 29.797605 40.301483 28.754596 38.835032 28.09375 37.40625 C 27.977955 37.155532 27.967705 36.913477 28.0625 36.65625 C 28.15817 36.396663 28.316145 36.207491 28.5625 36.09375 L 28.59375 36.09375 C 28.730262 36.030113 28.851836 36 29 36 z" overflow="visible" font-family="Sans"/>
</svg>
